<?xml version="1.0" encoding="utf-8"?>
<!-- Generator: Adobe Illustrator 27.5.0, SVG Export Plug-In . SVG Version: 6.00 Build 0)  -->
<svg version="1.1" xmlns="http://www.w3.org/2000/svg" xmlns:xlink="http://www.w3.org/1999/xlink" x="0px" y="0px"
	 viewBox="0 0 500 500" style="enable-background:new 0 0 500 500;" xml:space="preserve">
<g id="BACKGROUND">
	<rect style="fill:#FFFFFF;" width="500" height="500"/>
</g>
<g id="OBJECTS">
	<path d="M176.17,198.721c6.126-7.124,12.103-13.57,29.523-7.518c6.467,2.247,12.704,16.787,7.55,22.372
		c-4.429,4.799-12.455,5.161-17.845,8.634c-4.583,2.954-7.306,6.871-9.51,11.72c3.435,4.432,1.971,8.285-0.275,12.881
		c-1.702,3.483,0.258,8.928-2.751,11.6c10.927,8.921,17.236,19.532,18.714,33.811c0.776,7.497,0.336,13.907-3.8,19.887
		c-1.448,2.094-3.534,4.253-5.783,1.341c-1.131,3.021-5.023,2.804-6.181,0.001c-1.563,1.65-5.458,2.78-6.594,0
		c-1.49,1.564-4.719,2.269-5.928-0.022c-1.055-1.999,0.481-5.407,1.061-7.143c2.184-6.539-1.091-11.596-2.154-18.466
		c-0.595-3.845-3.323-5.422-3.323-9.37c-2.108,2.964-2.44,3.527-5.932,4.471c-2.555,0.69-4.31,2.144-6.846,2.926
		c-4.98,1.537-12.102,1.719-16.693,1.719c-2.118,4.563-3.344,9.955-6.267,14.203c-2.875,4.178-7.018,7.544-10.878,10.815
		c-0.99,0.839-11.988,8.428-11.791,3.342c-1.809,1.722-4.713,1.991-4.126-1.375c-1.75,1.491-5.446,1.083-4.112-1.911
		c-2.757,3.081-2.146-3.247-1.335-4.719c-1.849,0.276-4.207-1.007-4.168-2.984c-4.159,0.631,0.027-11.578,0.592-13.245
		c-3.098-0.453-6.92-0.989-9.855-1.601c-2.147,5.074-9.931,10.157-15.427,10.414c-2.689,0.126-7.632-0.494-8.852-3.31
		c0.189-0.217,0.38-0.571,0.549-0.771c-1.785,0.333-3.179-1.529-1.436-2.537c-1.789-0.376-2.568-2.779-0.832-3.852
		c-0.176-0.35-0.391-0.904-0.564-1.393c-4.88,2.37-4.737,10.993-4.506,15.69c0.139,2.815,0.735,5.937-0.666,8.541
		c-0.859,1.597-4.58,4.349-5.233,1.135c-1.469,2.327-4.912,2.172-5.64-0.563c-1.135,2.955-6.032,2.901-6.167-0.543
		c-7.354,5.545-6.756-5.453-5.261-10.541c1.368-4.655,3.41-9.077,5.166-13.565c1.256-3.211,1.809-6.363,3.302-9.469
		c0.989-2.056,2.132-3.659,3.435-5.513c-1.865-3.243-5.03-5.193-6.326-8.963c-1.44-4.189,1.927-5.644,4.614-8.359
		c9.937-10.038,12.031-24.286,19.903-35.662c2.374-3.431,4.799-6.841,8.227-9.338c2.575-1.875,6.289-5.487,9.339-6.168
		c3.724-0.832,8.661-4.416,12.206-5.797c4.649-1.811,9.068-4.098,14.016-5.013c4.242-0.784,8.529-0.262,12.723-1.218
		c4.441-1.013,8.693-2.496,13.256-2.972c9.57-0.999,19.996,1.62,26.702,8.636c3.647,3.816,9.047,9.252,9.391,12.415
		C169.385,211.373,171.424,204.24,176.17,198.721z"/>
	<path d="M412.978,57.743c5.046-3.095,11.349-4.364,17.13-5.133c10.414-1.386,24.72,3.566,25.343,17.056
		c1.105,23.922-22.917,12.64-34.085,13.227c-3.924,0.206-8.884,0.748-11.804,3.443c-0.578,2.454-0.084,4.309,0.049,6.871
		c5.134-1.219,13.678-2.527,24.665-0.846c13.859,2.12,24.02,13.793,26.384,27.658c2.132,12.504,3.132,25.557-5.105,36.131
		c-2.722,3.494-8.606,7.669-11.632,2.289c-0.949-1.688-0.489-3.985-1.32-5.595c-0.868-1.683-3.105-2.227-4.556-3.553
		c-4.092-3.742-0.381-6.591-2.323-11.27c-1.201-2.896-4.085-5.751-4.6-8.974c-0.494-3.095-0.676-3.935-2.809-5.793
		c-2.593-2.26-3.217-2.852-4.523-6.6c-1.473-4.225-2.514-4.842-5.573-7.748c-1.403-1.333-2.1-5.398-4.547-5.113
		c-1.958,0.228-8.421,6.558-8.421,6.558c-2.505,3.196-6.073,4.646-10.177,5.217c0.216,1.455-9.819,7.671-12.674,5.13
		c-4.47,6.191-18.527,7.04-18.618,6.067c-0.2,2.054-20.736,5.079-21.216,1.88c-7.067,2.611-14.103,2.661-21.106,0.077
		c0,0-8.802,1.744-15.067-1.842c-4.98,9.975-16.83,17.07-24.914,24.477c-7.333,6.719-16.482,16.936-27.132,17.712
		c-4.1,0.299-6.632-0.49-7.613-4.597c-0.982-4.113-1.19-9.452,2.206-12.295c-2.22-3.82-1.362-8.471,1.559-11.452
		c1.634-1.668,2.23-1.219,2.827-3.699c0.754-3.135,0.739-4.902,3.423-7.148c4.639-3.881,11.247-4.471,17.334-7.956
		c3.619-2.072,9.351-3.04,12.756-5.506c-2.971-1.264-6.956-1.393-8.519-4.648c-4.192-0.066-5.866-0.367-10.202,0.931
		c-5.549,1.661-11.231,2.749-16.928,3.277c-1.841,0.171-9.247,1.564-8.716-0.96c0.388-1.844,7.129-4.688,9.17-4.95
		c-1.524-3.119,2.628-5.28,4.955-5.993c-0.137-3.999,13.424-4.32,16.834-4.32c7.29-5.666,13.604-8.012,22.439-13.595
		c4.46-2.818,8.113-6.781,12.766-9.309c5.352-2.908,10.778-6.033,16.437-8.33c14.914-6.056,28.828-7.49,44.569-8.265
		c-1.053-2.291-5.036-2.738-4.557-6.09c-2.796,1.491-7.12-0.788-7.999-3.708c-2.973,1.31-7.077-2.169-8.124-4.921
		c8.507-4.669,23.766,0.487,31.92,4.219c4.543,2.079,16.481,14.832,16.481,14.832S409.021,60.17,412.978,57.743z"/>
	<path d="M406.366,259.494c-1.647,1.405-3.291,3.262-3.178,5.52c-1.185,0.92-3.443,2.688-2.204,4.355
		c-1.275,1.477-2.296,3.814-0.945,5.471c-0.547,1.289-1.322,2.954-0.249,4.234c0.209,0.179,0.601,0.079,0.638,0.441
		c-0.727,0.458,0.28,1.949,0.659,2.371c0.66,0.736,2.207,0.516,3.016,0.216c0.44-0.163,0.688-0.305,1.029,0.063
		c1.624,1.738,4.368,0.383,6.111-0.212c1.284,1.505,4.363,0.046,5.598-1.175c1.678,0.444,3.846,0.239,4.724-1.585
		c1.75,0.642,2.876-0.807,3.934-1.945c0.73-0.248,0.928-1.273,1.317-1.903c0.298-0.486-0.001-1.209,0.796-1.087
		c1.335,0.07,1.975-1.064,2.517-2.087c1.268-1.142,0.948-2.867,1.053-4.367c2.407-0.812,1.927-4.343,2.343-6.442
		c0.048-1.926,1.924-0.016,1.377-4.452c0.054-0.786,0.047-1.617-0.222-2.346c1.437-1.226,0.823-3.484-0.319-4.762
		c-0.267-5.133-3.288-7.721-7.527-10.017c5.391-0.39,11.11,2.031,16.64,2.216c2.549,0.081,5.286,0.67,7.651-0.525
		c1.871-1.164,0.505-4.795,0.505-4.795s7.122,1.893,8.264-6.794c3.525-26.807-24.952-14.068-32.079-14.699
		c-3.646-4.967-8.923-13.392-15.045-14.951c-0.014-0.061,0.016-0.087,0.091-0.076c-5.701-6.658-19.93-25.249-29.125-23.91
		c-9.698-4.213-22.613-10.338-33.061-5.117c-9.892-3.136-23.238-2.122-32.334,3.154c0.02-0.002,0.04-0.003,0.059-0.005
		c-8.97,2.804-18.206,7.587-23.714,15.448c-8.111,2.289-19.979,15.853-22.139,24.009c-5.988,3.77-10.899,9.907-13.718,16.432
		c-0.775,1.805,4.375,4.608,5.748,5.313c-0.864,0.291-1.855,0.494-2.646,1.036c-0.403,0.238-0.608,0.97-1.161,0.812
		c-1.667-0.003-3.745-0.708-5.176,0.324c-1.789-0.704-4.842-0.07-5.499,1.948c-2.012,0.421-4.103,2.443-4.229,4.544
		c-2.041,1.185-1.835,4.682,0.005,5.957c0.175,0.2,0.105,0.314,0.014,0.582c-0.826,2.228,0.764,4.092,2.341,4.297
		c0.634,2.215,1.123,4.24,3.74,4.527c-0.177,1.755,2.028,2.885,3.565,2.94c2.084-0.298,3.847-2.069,5.946-2.072
		c1.906,0.283,3.664-0.247,5.164-1.451c1.911-0.222,3.311-1.813,4.43-3.075c2.292,0.073,4.913,0.673,7.137-0.302
		c1.629,0.647,3.553,0.43,5.282,0.317c0.805-0.18,1.711-0.539,2.302-1.093c1.257,0.312,2.596,0.143,3.779-0.353
		c0.018,0.036,0.05,0.054,0.097,0.054c0.078,0.727,1.117,0.322,1.548,0.739c6.802,1.321,13.382,3.745,20.235,4.853
		c7.532,1.665,15.222,3.463,22.9,1.982c12.753,1.065,25.623,2.26,38.334,0.823c4.001,0.916,8.639,1.364,12.563-0.096
		c1.501-0.673,2.988-1.571,4.589-1.906c1.825,0.458,3.626-0.172,5.41-0.596c1.722-0.471,3.305-1.305,4.92-1.965
		c1.286-0.061,2.601,0.206,3.796-0.308C404.829,258.299,405.331,259.545,406.366,259.494z"/>
	<path d="M80.92,111.106c-28.393-11.558-34.438,17.547-28.314,39.035c3.078,10.389,5.256,22.067,13.169,29.9
		c1.89,1.404,3.114,5.653,6.033,4.207c1.473-0.642,0.736-1.492,0.996-2.576c2.452-0.269,4.568-1.36,3.463-4.27
		c1.227,0.054,1.62-1.007,1.822-2.02c0.925-2.695-1.744-4.699-2.098-7.144c0.706-2.968-0.055-5.775-1.274-8.445
		c-0.145-0.327-0.59-0.467-0.414-0.85c0.47-0.363,0.892-0.83,1.261-1.348c2.139-2.389,2.485-6.317,1.454-9.236
		c2.854-3.485,2.461-8.636,1.697-12.75c1.243-3.622,1.093-9.623,0.212-13.348c2.541,5.796,8.524,10.903,14.782,11.747
		c0.026,0.345-0.05,0.674-0.228,0.985c1.09,0.008,1.413,1.102,2.063,1.767c3.285,3.459,7.602,5.798,11.983,7.468
		c3.928,3.989,9.173,7.608,14.971,7.553c0.014,0.068,0.028,0.136,0.042,0.204c1.313-0.223,1.919,1.277,3.188,1.463
		c4.167,1.672,9.348,3.436,13.711,1.998c4.812,2.516,11.713,2.937,16.593,0.233c0.605-0.211,1.04,0.639,1.603,0.864
		c1.006,0.401,1.929,0.347,2.999,0.49c4.827,0.774,10.135-0.547,13.616-3.823c5.001,0.205,10.276-1.355,14.235-4.398
		c0.018,0.072,0.037,0.145,0.055,0.217c-0.004-0.05-1.24-0.1-1.244-0.149c5.998,4.737,14.568,19.262,21.08,20.337
		c3.129,0.984,5.782-3.474,4.076-6.101c2.967-0.518,3.558-4.192,3.374-6.711c-0.245-0.943-1.165-1.636-1.649-2.382
		c1.588-1.002,1.207-4.367,0.164-5.689c-0.735-0.737-1.772-0.97-2.548-1.589c-0.587-0.467-0.228-0.972-0.333-1.643
		c-0.978-2.301-6.504-5.581-8.883-6.416c1.637-0.939,2.049-3.178,2.007-4.901c3.19,0.251,6.815-0.976,7.852-4.328
		c0.064-0.37,0.052-1.001-0.057-1.36c-0.133-0.435-0.454-0.519-0.154-0.918c4.792-3.98,1.318-11.392-2.486-14.793
		c0.15-0.073,0.307-0.09,0.472-0.051c0.437,0.103-0.118-0.02,0.027-0.412c0.895-1.74,0.425-3.705,0.993-5.463
		c6.779-2.113,20.909-4.292,20.164-13.578c-0.079-0.752-0.744-1.182-1.242-1.684c-1.416-0.001,0.976-3.138-0.967-4.53
		c-1.026-1.366-1.695-0.694-2.936-0.967c-0.026-2.191-0.964-4.703-3.16-5.669c-4.933-5.117-6.276,8.774-18.988,12.896
		c-0.016,0.066-0.032,0.132-0.048,0.199c-1.303-2.776-3.924-5.17-6.544-6.631c-0.826-0.324-1.773-0.346-2.52-0.741
		c-2.585-3.971-6.067-8.974-11.136-9.615c-0.808-0.083-1.094-0.929-1.534-1.563c-0.568-0.819-1.577-1.184-2.34-1.829
		c-2.542-1.451-4.97-3.75-7.954-4.002c-3.285-1.439-6.215-4.243-9.892-5.121c-1.441,0.144-3.256-0.865-4.527-0.036
		c0.049-0.005,0.099-0.009,0.148-0.014c-4.961-0.109-9.648-2.718-14.726-1.916c-0.105,0.273-0.473,0.27-0.593,0.011
		c-4.763-2.177-10.249-2.03-15.2-0.54c-6.294-1.785-14.078-0.629-19.449,3.129c0.814,0.453,0.998-1.519,1.506-1.918
		c2.863-1.585,5.504-3.194,6.838-6.294c3.021,1.521,6.857-1.903,8.553-4.219c0.577-0.646,0.909-1.877,1.79-2.048
		c3.396,0.186,8.256-1.53,8.674-5.388c3.031,1.485,8.836-0.75,9.844-4.18c3.982,0.187,7.923-2.763,8.09-6.927
		c-1.271-7.654-23.273-4.687-28.99-3.216c-8.914,2.128-16.562,7.382-23.409,13.203c-10.786,6.104-15.912,18.099-7.149,28.347
		c0.064-0.054,0.128-0.109,0.191-0.163c-2.979,0.229-6.128,1.411-8.879,2.647c-1.117,0.813-2.306,2.188-3.73,1.114
		c-11.427-5.796-24.173-10.813-37.194-8.644c-4.499,1.407-12.44,6.031-13.49,10.793c-0.215,5.694,5.743,8.329,9.292,11.816
		c4.816,3.352,10.202,6.708,16.229,7.16c2.001,0.025,4.056-0.121,5.993,0.425c1.043,0.222,2.318-0.404,3.198,0.315
		c0.391,0.091,0.685-0.176,0.998,0.233c0.452,0.591,1.914,0.334,2.563,0.635c2.34,1.177,4.375,2.849,6.686,4.041
		C77.47,104.772,80.015,107.814,80.92,111.106z"/>
	<path d="M247.751,428.263c-3.941-4.695-9.129-7.152-14.604-9.239c2.905-6.877-7.634-16.571-9.425-15.121
		c-0.353-5.791-4.912-9.086-11.394-11.238c-1.499-6.276-6.605-9.519-13.325-11.404c-7.525-10.407-18.714-15.122-32.934-15.132
		c-11.911-3.437-23.335-4.712-33.622-0.946c-1.802-2.43-16.247,0.879-21.174,5.397c-3.373-12.875-14.222-27.412-25.636-33.303
		c-7.05-3.639-17.55-8.928-29.096,1.671c-4.807,4.413,1.425,10.715,3.038,15.253c1.65,4.642,5.728,9.615,8.664,13.837
		c4.211,6.057,8.244,8.454,13.883,12.123c2.633,1.713,3.985,5.377,5.498,8.035c2.64,4.638,7.132,7.102,10.351,11.324
		c-5.953-2.842-12.019-0.967-16.802,3.157c-6.684,5.764-6.386,14.642-4.951,22.884c2.848,16.356,15.407,28.86,30.41,34.037
		c10.932,3.772,6.82-7.989,4.249-13.909c-2.196-5.056-4.702-9.626-6.197-15.027c-0.807-2.915-3.112-8.652-2.292-11.634
		c1.136-4.133,5.053-0.822,8.041,0.507c2.415,1.074,4.702,2.407,7.334,2.912c1.562,0.3,3.534,0.067,4.662,1.026
		c4.69,13.321,6.786,23.571,17.346,32.757c10.368,9.018,17.137,13.589,29.816,16.708c4.728,1.163,16.168,2.758,19.329-2.203
		c1.952-3.064,0.105-7.199-1.721-9.75c-3.462-4.837-8.882-8.167-12.715-12.881c-7.814-9.612-7.797-9.146-10.663-21.24
		c0.233-0.713,0.288,0.044,0.721,0.031c15.912,8.748,35.051,4.956,52.228,4.105c7.728-0.383,14.944,2.071,22.687,2.054
		C243.778,433.044,253.086,434.617,247.751,428.263z"/>
	<path d="M457.008,415.323c-4.962-0.922-9.937-0.831-14.893-1.548c-2.721-0.394-8.177-2.098-9.398-1.466
		c-0.012-1.078,2.746-8.516,2.9-11.101c0.13-2.184-0.456-4.181-1.412-6.108c-0.614-1.238-2.016-2.673-2.295-3.94
		c-0.425-1.932,0.498-4.031-0.315-6.083c-0.708-1.785-2.269-3.889-3.566-5.288c-1.04-1.122-4.941-3.171-5.51-3.367
		c-0.379-0.408-3.601-6.256-6.221-8.323c-1.754-1.383-4.009-2.092-6.117-1.696c-0.954-0.656-5.135-7.909-13.479-8.038
		c-0.451-0.007-1.33-0.833-1.691-1.068c-0.93-0.605-1.886-1.186-2.799-1.806c-2.465-1.672-4.577-2.992-7.568-3.435
		c-2.076-0.307-4.333-0.164-6.37-0.644c-1.636-1.02-4.859-2.943-6.645-3.423c-3.661-0.983-7.161-0.351-10.643,0.725
		c-1.028-0.261-2.051-0.571-3.07-0.97c0.015-17.446,16.806-26.183,33.577-26.171c6.258,0.004,15.695,1.457,17.587-6.371
		c1.467-6.068-8.699-19.699-14.973-16.314c-1.64-6.959-22.062-9.159-23.409-6.74c-9.708-2.071-17.091,0.027-22.197,6.212
		c-8.205,0.878-13.385,4.967-15.93,11.852c-5.501,0.668-15.179,35.251-3.62,41.284c-10.543,0.528-17.261-3.097-26.195-8.616
		c-7.595-4.692-16.574-8.638-25.382-10c-8.625-1.334-17.485-0.324-21.891,8.116c-3.468,6.644-3.012,12.581,2.17,18.381
		c4.834,5.411,11.944,11.165,19.265,12.281c5.7,0.868,11.6,0.203,17.281,1.099c4.859,0.766,10.169,1.078,13.887,4.814
		c2.552,2.564,3.66,8.686,3.66,8.686s-9.669-1.197-12.238-1.484c-3.527-0.394-6.683,1.121-10.026,2.427
		c-4.987,1.948-6.036,10.872-5.011,11.528c-1.869,4.497-1.438,8.582,1.452,12.225c-0.067,4.654,1.24,8.607,4.692,11.469
		c-0.182,3.462,1.079,6.387,4.384,8.551c0.452,3.391,2.531,6.388,5.968,9.055c0.864,2.985,2.637,5.361,6.148,6.572
		c0,0,5.505,3.104,8.198,1.301c3.18-2.13-4.416-17.531-5.51-22.039c-1.653-6.813-4.033-17.493-0.063-23.663
		c0.396,0.058,3.885,14.695,18.956,17.632c3.755,5.132,9.012,8.007,16.48,7.558c3.388,4.65,8.153,6.88,14.981,5.482
		c-0.404,0.9,12.209,5.589,15.206,2.831c-2.21,4.357-1.228,12.434-0.34,16.964c1.217,6.208,0.713,14.263,3.397,19.886
		c1.135,2.377,4.243,6.831,6.622,6.489c4.487-0.646,4.015-7.584,5.203-10.311c1.284-2.946,3.794-3.877,3.871-8.168
		c0.063-3.513-0.358-6.441-0.469-9.967c-0.165-5.208-4.292-15.339,4.56-16.994c3.303-0.618,11.546,5.208,15.096,7.052
		c3.508,1.822,7.941,5.531,12.089,3.427c0.493-5.539-7.323-10.053-7.564-15.77c4.35,0.155,7.84-1.437,10.92-4.356
		c2.307,3.75,21.412,11.783,22.885,4.356c3.049,1.276,6.835-1.316,6.759-4.851c2.227,1.517,7.564,0.61,7.659-2.946
		C466.148,416.982,459.526,415.791,457.008,415.323z"/>
</g>
</svg>
